<?xml version="1.0" encoding="utf-8"?>
<!-- Generator: Adobe Illustrator 19.2.1, SVG Export Plug-In . SVG Version: 6.00 Build 0)  -->
<svg version="1.1" id="layer" xmlns="http://www.w3.org/2000/svg" xmlns:xlink="http://www.w3.org/1999/xlink" x="0px" y="0px"
	 viewBox="0 0 652 652" style="enable-background:new 0 0 652 652;" xml:space="preserve">
<style type="text/css">
	.st0{fill:#A054A0;}
	.st1{fill:#813588;}
	.st2{fill:#4B205A;}
	.st3{fill:#FEFEFE;}
</style>
<path class="st0" d="M282.2,271.1c3.9,0.1,7.3,2.4,8.8,6l22.2,37.1l22.2-37.1c1.5-3.5,5-5.9,8.8-6c5-0.3,9.4,3.3,10,8.2
	c0-0.4,0-0.7,0-1.1c-0.1-2.5-1.2-4.9-3.1-6.6c-1.9-1.7-4.4-2.6-6.9-2.4c-3.9,0.1-7.3,2.4-8.8,6l-22.2,37.1L291,275.2
	c-1.5-3.5-5-5.9-8.8-6c-2.5-0.2-5,0.7-6.9,2.4c-1.9,1.7-3,4.1-3.1,6.6c0,0.4,0,0.7,0,1.1C272.8,274.4,277.2,270.8,282.2,271.1z"/>
<path class="st0" d="M229.8,309.4c-6.5,1.2-10.6,3.9-10.6,10.1c0,0.3,0,0.6,0,1c0.4-5.6,4.4-8,10.6-9.2c2.8-0.1,5.4-1.3,7.3-3.4
	c1.9-2.1,2.9-4.8,2.8-7.6c0-0.3,0-0.6,0-1C239.6,304.8,235.2,309.2,229.8,309.4z"/>
<path class="st1" d="M586.1,375.7c-13,0.4-25.4-5.1-33.7-15.1c-2.2-2.4-3.5-5.6-3.7-8.9c-0.1-2.8,1-5.6,3-7.6c1.8-1.5,4-2.3,6.3-2.3
	c3.8,0.6,7.1,2.7,9.3,5.8c4.7,5.4,11.5,8.6,18.7,8.7c9.2,0,14.5-4.1,14.5-11.2c0-9.2-9.3-13.1-20.1-17.6
	c-13.4-5.6-28.5-12-28.5-30.5c-0.4-8.5,3.2-16.8,9.7-22.3c6.2-4.7,13.8-7.2,21.5-7.1c7.5-0.2,15,1.7,21.5,5.4
	c6.2,3.6,13.4,10.3,13.4,17.6c0,2.3-1,4.5-2.8,6c-1.8,1.5-4.2,2.3-6.6,2.3c-3.7-0.3-7.2-2.3-9.3-5.3c-0.9-1-1.9-2-3-2.8
	c-3.8-2.8-8.4-4.3-13.1-4c-7.3,0-11.5,3.6-11.5,10c0,6.5,7.9,10,17.1,13.9c14,6,31.5,13.5,31.5,35.6c0.2,8.4-3.5,16.5-10.1,21.8
	C603.2,373.2,594.7,375.9,586.1,375.7z M224.1,375h-0.9l-27.5-0.3c-2.7,0.2-5.3-0.8-7.2-2.7c-1.9-1.9-2.9-4.5-2.8-7.2v-87.3
	c-0.1-2.7,0.9-5.3,2.8-7.2c1.9-1.9,4.5-2.9,7.2-2.7h27.6c9.8-0.6,19.5,2.3,27.3,8.2c6,5.3,9.3,13.1,9,21.1
	c-0.1,8.9-4.9,17.1-12.6,21.6c-0.1,0-0.1,0.1-0.1,0.2c0,0.1,0,0.2,0.1,0.2c5.3,2.1,9.9,5.6,13.2,10.2c3.2,4.6,4.8,10.1,4.8,15.7
	c0.4,8-2.9,15.8-8.9,21.1C249.2,372,238.5,375,224.1,375z M205.5,286v70.1h20.3c12.4,0,18.9-4.2,18.9-12.2c0-8.8-4.1-12.5-15.1-13.7
	c-6.9-0.9-10.5-4.6-10.5-10.7c0-5.6,3.3-8.7,10.6-10.1c2.8-0.1,5.4-1.3,7.3-3.4c1.9-2.1,2.9-4.8,2.8-7.6c0.4-3.4-0.8-6.8-3.2-9.2
	c-2.4-2.4-5.8-3.6-9.2-3.3H205.5z M313.1,374.7c-2.9-0.1-5.5-1.5-7.4-3.6c-1.9-2.2-2.7-5-2.4-7.9v-30.8l-28.6-46
	c-1.7-2.4-2.6-5.2-2.6-8.2c0-2.5,1.1-4.8,2.9-6.4c2-1.7,4.5-2.6,7.2-2.6c3.9,0.1,7.3,2.4,8.8,6l22.2,37.1l22.2-37.1
	c1.5-3.5,5-5.9,8.8-6c2.6,0,5.2,0.9,7.2,2.6c1.9,1.6,2.9,4,2.9,6.4c0,2.9-0.9,5.8-2.6,8.2l-28.6,46v30.8
	C323.2,370.2,319.2,374.7,313.1,374.7z M377.2,374.3c-9.3,0.4-18.3-3.3-24.5-10.2c-4.3-4.8-6.8-10.9-7.1-17.4
	c-0.1-2.7,0.9-5.3,2.7-7.2c1.9-1.9,4.5-3,7.2-2.9c0.3,0,0.6,0,0.8,0c5.4,0.4,6.8,4.3,8.4,8.4c1.9,4.9,3.8,10,12.6,10h0.4
	c4.1,0.3,8.1-1.5,10.7-4.7c2.6-4.2,3.7-9.1,3.4-14v-55.6c0-7.2,3.7-11.5,9.9-11.5c6,0,9.9,4.5,9.9,11.5v55.2
	C411.7,361,399.8,374.3,377.2,374.3L377.2,374.3z M470.3,374.1c-10.6,0.7-20.9-3.4-28.3-11c-6.7-7.5-10.1-18.6-10.1-32.9v-49.5
	c-0.1-3.1,0.8-6.1,2.7-8.5c1.8-2,4.5-3.1,7.2-3c6,0,9.9,4.5,9.9,11.5v47.9c0,9.6,1.5,16.2,4.7,20.3c3.4,4,8.6,6.1,13.8,5.6
	c5.2,0.5,10.4-1.6,13.8-5.6c3.2-4.1,4.7-10.7,4.7-20.3v-47.9c0-7,3.9-11.5,9.9-11.5c2.7-0.1,5.4,1,7.2,3c1.9,2.4,2.9,5.4,2.7,8.5
	v49.5c0,14.4-3.4,25.5-10.1,32.9C491.2,370.8,480.9,374.8,470.3,374.1L470.3,374.1z M530.2,306c-5.5,0-8.4-5.3-8.4-15.4v-7.9
	c0-9.1,3.3-13.5,10.4-13.7c2.9-0.2,5.8,0.8,7.8,2.9c1.8,2.2,2.6,5.1,2.4,7.9c-0.6,7.4-2.4,14.6-5.2,21.4
	C536,304,533.3,305.9,530.2,306z"/>
<path class="st0" d="M451.8,330.5c0,19.7,6.4,25.9,18.5,25.9c12.2,0,18.5-6.2,18.5-25.9v-1.9c0,19.7-6.4,25.9-18.5,25.9
	c-12.2,0-18.5-6.2-18.5-25.9V330.5z"/>
<path class="st0" d="M571.7,297.6c0,0.3,0,0.7,0,1c0,16.2,47.7,12.8,48.6,48.4c0-0.3,0-0.5,0-0.8C620.3,310.2,573.3,313,571.7,297.6
	z"/>
<path class="st0" d="M558,343.7c3.8,0.6,7.1,2.7,9.3,5.8c4.7,5.4,11.5,8.6,18.7,8.7c8.7,0,14.5-3.7,14.5-11.2c0-0.3,0-0.7,0-1
	c-0.4,6.9-6.1,10.4-14.5,10.4c-7.2-0.2-13.9-3.3-18.7-8.7c-2.1-3.2-5.5-5.3-9.3-5.8c-2.6-0.1-5.1,0.9-6.9,2.8
	c-1.8,1.9-2.7,4.4-2.5,7c0,0.3,0,0.5,0,0.8c0-2.4,1.1-4.7,2.8-6.4C553.3,344.5,555.6,343.6,558,343.7z"/>
<path class="st0" d="M345.6,346.7c0,0.4,0,0.7,0,1.1c0.1-2.7,1.3-5.2,3.3-7c2-1.8,4.7-2.6,7.4-2.3c11.9,1,4.7,18.7,21.4,18.4
	c9.8-0.1,14.1-6.1,14.1-18.7v-1.9c0,12.6-4.3,18.6-14.1,18.7c-16.7,0.3-9.5-17.5-21.4-18.4c-2.8-0.3-5.6,0.6-7.7,2.6
	C346.5,341.1,345.4,343.9,345.6,346.7z"/>
<path class="st0" d="M225.8,358c12.4,0,18.9-4.3,18.9-12.2c0-0.4,0-0.8,0-1.2c-0.4,7.5-6.8,11.5-18.9,11.5h-20.3v1.9H225.8z"/>
<path class="st0" d="M247.1,319.1c-0.1,0-0.1-0.1-0.1-0.2c0-0.1,0-0.2,0.1-0.2h0c-0.3,0.2-0.7,0.5-1.1,0.9c-0.2,0.1-0.2,0.3-0.2,0.5
	c0,0.2,0.2,0.4,0.3,0.5l1,0.4c10.6,3.9,17.8,13.9,17.9,25.3c0-0.4,0-0.8,0-1.2c0-3-0.5-6-1.4-8.9C260.9,328.3,254.8,322,247.1,319.1
	z"/>
<path class="st1" d="M139.4,258c2.3,0,4.4,0.9,6,2.5c1.6,1.6,2.5,3.8,2.5,6v109.7c0,2.3-0.9,4.4-2.5,6c-1.6,1.6-3.8,2.5-6,2.5H30.1
	c-2.3,0-4.4-0.9-6-2.5c-1.6-1.6-2.5-3.8-2.5-6V266.5c0-2.3,0.9-4.4,2.5-6c1.6-1.6,3.8-2.5,6-2.5H139.4z"/>
<path class="st2" d="M104.7,356.3L104.7,356.3l-26.2,7.6c-2.2,0.6-4.5-0.6-5.2-2.8l-19.8-69c-0.6-2.2,0.6-4.6,2.9-5.2l27.1-7.9
	c6.3-1.9,13,0,17.4,4.9c3.6,3.7,5.4,8.7,5.2,13.9c-0.2,5.1-2.6,10-6.4,13.3c11.2,0.7,20.3,9.3,21.5,20.5
	C122.4,342.7,115.4,353.1,104.7,356.3"/>
<path class="st3" d="M76.7,369.3c-3.7,0-7-2.5-8-6.1l-20.3-70.7c-1.3-4.5,1.3-9.1,5.7-10.4l27.9-8.1c1.7-0.5,3.5-0.7,5.4-0.7
	c7,0,13.7,3,18.4,8.3c3.1,3.8,4.9,8.5,5.4,13.4c0.4,4.4-0.5,8.9-2.6,12.8c5.6,2.2,10.4,6.2,13.6,11.4c3.5,5.7,4.9,12.4,4.1,19.1
	c-0.7,5.2-3,10-6.5,13.9c-3.3,4.1-7.7,7.1-12.7,8.7L79,369C78.2,369.2,77.4,369.3,76.7,369.3z M88.3,278.2c-1.6,0-3.3,0.2-4.8,0.7
	l-27.2,7.9c-2.2,0.7-3.5,3-2.9,5.2l19.8,69c0.3,1.1,1,2,2,2.5c1,0.5,2.1,0.7,3.2,0.4l26.2-7.6c10.8-3.1,17.7-13.6,16.5-24.7
	c-1.2-11.2-10.3-19.8-21.5-20.5c3.8-3.2,6.1-7.9,6.4-12.8c0.3-5.3-1.6-10.5-5.2-14.4C97.6,280.2,93,278.2,88.3,278.2z"/>
<path class="st1" d="M112.8,337.9c0-11.7-9.3-21.1-21-21.3c3.7-3.2,5.9-7.8,6.2-12.7c0.3-4.9-1.5-9.7-4.8-13.3
	c-4.2-4.9-10.9-6.8-17.1-5l-22.7,6.6L73.2,361c0.3,1.1,1,2,2,2.5c1,0.5,2.1,0.7,3.2,0.4l18.6-5.4l0.3-0.1
	C106.5,355.8,112.8,347.4,112.8,337.9"/>
<path class="st1" d="M587.2,377h-0.1c-13,0.4-25.4-5.2-33.7-15.3c-2.2-2.5-3.5-5.6-3.7-8.9c-0.1-2.8,1-5.6,3-7.6
	c1.8-1.5,4-2.3,6.4-2.3h0c3.8,0.6,7.1,2.7,9.3,5.9c7.9,7.7,13.9,8.8,18.7,8.8h0.1c9.2,0,14.5-4.1,14.5-11.2
	c0-9.2-9.3-13.2-20.1-17.7c-13.4-5.7-28.6-12.1-28.5-30.6c-0.4-8.6,3.2-16.8,9.8-22.3c6.2-4.7,13.8-7.1,21.6-7
	c7.6-0.2,15,1.7,21.6,5.5c6.2,3.6,13.4,10.4,13.4,17.7c0,2.3-1,4.5-2.8,6c-1.9,1.5-4.2,2.3-6.6,2.3h0c-3.7-0.3-7.2-2.3-9.3-5.4
	c-0.9-1-1.9-2-3-2.8c-3.8-2.9-8.4-4.3-13.1-4.1h-0.1c-7.3,0-11.4,3.6-11.5,10c0,6.6,7.9,10,17.1,14c14.1,6.1,31.5,13.7,31.5,35.8
	c0.2,8.4-3.6,16.5-10.2,21.7C604.4,374.6,595.9,377.3,587.2,377z M224.5,375.3L224.5,375.3h-1.3l-27.6-0.4c-2.7,0.1-5.3-0.9-7.2-2.8
	c-1.8-1.9-2.8-4.5-2.7-7.2l0.2-87.5c-0.1-2.7,0.9-5.3,2.8-7.2c1.9-1.9,4.5-2.9,7.2-2.7h0l27.7,0.1c9.8-0.6,19.5,2.4,27.3,8.3
	c6,5.4,9.3,13.2,9,21.2c-0.1,8.9-4.9,17.2-12.7,21.6c-0.1,0.1-0.1,0.1-0.1,0.2c0,0.1,0,0.2,0.1,0.2c5.3,2.1,9.9,5.7,13.2,10.3
	c3.2,4.6,4.8,10.1,4.8,15.8c0.4,8-2.9,15.8-8.9,21.1C249.5,372.3,238.8,375.3,224.5,375.3z M205.8,286L205.8,286l-0.2,70.3l20.4,0.1
	h0.1c12.3,0,18.9-4.2,18.9-12.2c0-8.8-4.1-12.5-15.1-13.8c-6.9-0.9-10.5-4.6-10.5-10.7c0-5.6,3.3-8.7,10.7-10.1
	c2.8-0.1,5.4-1.3,7.4-3.4c1.9-2.1,2.9-4.8,2.8-7.6c0.2-3.3-0.9-6.6-3.1-9.1c-2.5-2.4-5.9-3.7-9.3-3.5L205.8,286z M313.5,375.3
	L313.5,375.3c-2.6,0-5.2-1.1-6.9-3.1c-2-2.4-3-5.4-2.9-8.5l0.1-30.8l-28.5-46.2c-1.7-2.4-2.6-5.3-2.6-8.2c0-2.5,1.1-4.8,2.9-6.4
	c2-1.7,4.6-2.6,7.2-2.6l0,0c3.9,0.1,7.3,2.5,8.8,6l22.2,37.3l22.4-37.2c1.5-3.5,5-5.9,8.9-6h0c2.6,0,5.2,0.9,7.2,2.6
	c1.9,1.6,2.9,4,2.9,6.4c0,2.9-0.9,5.8-2.7,8.2l-28.8,46l-0.1,30.8C323.6,370.7,319.6,375.3,313.5,375.3L313.5,375.3z M471.2,375.1
	H471c-10.6,0.6-21-3.4-28.4-11.1c-6.7-7.5-10.1-18.6-10-33.1l0.1-49.6c-0.1-3.1,0.8-6.1,2.8-8.5c1.8-2,4.5-3.1,7.2-3h0
	c2.7-0.1,5.3,1.1,7.2,3.1c1.9,2.4,2.9,5.4,2.8,8.5l-0.1,48.1c0,9.6,1.5,16.3,4.6,20.4c3.4,4,8.6,6.1,13.8,5.6h0.1
	c5.2,0.5,10.4-1.6,13.8-5.6c3.2-4.1,4.7-10.7,4.7-20.3l0.1-48.1c0-7,3.9-11.5,10-11.5h0c2.7-0.1,5.4,1,7.2,3.1
	c1.9,2.4,2.9,5.4,2.7,8.5l-0.1,49.6c0,14.4-3.5,25.5-10.1,32.9C492.1,371.8,481.8,375.8,471.2,375.1z M377.9,375h-0.2
	c-9.3,0.4-18.3-3.4-24.6-10.3c-4.3-4.8-6.8-11-7.1-17.4c-0.1-2.7,0.9-5.3,2.8-7.2c1.9-1.9,4.5-3,7.2-2.9c0.3,0,0.6,0,0.9,0
	c5.4,0.5,6.9,4.3,8.4,8.4c1.9,5,3.8,10.1,12.7,10.1h0.3c4.1,0.3,8.2-1.4,10.8-4.7c2.6-4.2,3.8-9.1,3.4-14.1l0.2-55.7
	c0-7.2,3.7-11.5,10-11.5h0c6.1,0,10,4.6,9.9,11.6l-0.2,55.3C412.3,361.7,400.4,375,377.9,375L377.9,375L377.9,375z M531.4,307
	L531.4,307c-2.8,0-5.2-1.5-6.4-4c-1.6-3.6-2.3-7.5-2.1-11.4l0-7.9c0-9.1,3.3-13.5,10.4-13.7c2.9-0.2,5.8,0.9,7.8,2.9
	c1.7,2.3,2.6,5.1,2.4,7.9c-0.6,7.4-2.4,14.6-5.4,21.4C537.1,305,534.4,306.9,531.4,307z"/>
</svg>
